<?xml version="1.0" encoding="utf-8"?>
<!-- Generator: Adobe Illustrator 22.0.0, SVG Export Plug-In . SVG Version: 6.00 Build 0)  -->
<svg version="1.2" baseProfile="tiny" id="Layer_1" xmlns="http://www.w3.org/2000/svg" xmlns:xlink="http://www.w3.org/1999/xlink"
	 x="0px" y="0px" viewBox="0 0 1024 768" xml:space="preserve">
<path fill="#FFFFFF" d="M289.3-319.7l-21.4-48.9c-3.6-8.3-10.3-14.7-18.7-18c-7.9-3.1-16.5-3.1-24.5-0.1
	c-10.5,0.5-80.3,0.4-90.8-0.1c-7.9-3.1-16.5-3-24.5,0c-8.5,3.2-15.1,9.6-18.8,17.9L69-319.9c-7.5,17.1,0.2,37.2,17.3,44.8
	c3.9,1.8,8.1,2.6,12.3,2.7l-0.1,62.2c0,5.1,4.1,9.2,9.2,9.2l141.9,0.2c5.1,0,9.2-4.1,9.2-9.2l0.1-62.1c4.4-0.1,8.7-1.1,12.8-2.8
	c8.3-3.6,14.7-10.3,18-18.7C293.1-302.2,292.9-311.4,289.3-319.7z M206.1-293.8l-3-74.2c4-0.1,7.7-0.1,11.1-0.2l12.7,71.9
	c-2.4,2.9-5.7,4.9-9.5,5.4C213.4-290.3,209.4-291.4,206.1-293.8z M184.6-367.9l3,74.3c-5.1,3.5-12.1,3.6-17.2,0.2l3.2-74.5
	C177.2-367.9,180.9-367.9,184.6-367.9z M144.2-368.3c3.3,0.1,7,0.2,10.8,0.2l-3.2,74.3c-3.2,2.3-7.2,3.3-11.1,2.8
	c-3.8-0.6-7.1-2.6-9.5-5.5L144.2-368.3z M86-312.5l21.6-48.9c1.6-3.8,4.7-6.6,8.6-8.1c3.1-1.2,6.5-1.3,9.6-0.4l-12.9,72.1
	c-4,6.1-12.2,8.6-19,5.6C86.1-295.6,82.5-304.7,86-312.5z M117.1-219.5l0.1-57.6c1.5-0.9,3-1.9,4.4-3c4.7,3.9,10.4,6.5,16.6,7.4
	c8,1.2,16.1-0.6,22.8-4.8c10.6,6.8,25.3,6.8,36.1-0.2c6.8,4.4,14.8,6.2,23.1,5.1c6.2-0.9,11.9-3.5,16.6-7.4c1.2,1,2.6,1.9,3.9,2.7
	l-0.1,57.9L117.1-219.5z M272.6-300.5c-1.5,3.8-4.4,6.9-8.2,8.5c-6.8,3-14.9,0.4-18.9-5.7l-12.8-72.1c3.2-0.9,6.5-0.7,9.6,0.5
	c3.8,1.5,6.9,4.4,8.5,8.2l21.4,48.9C273.9-308.5,274.1-304.3,272.6-300.5z"/>
<path fill="#4D4D4D" d="M843.6-336.2l-18.4-42c-3.1-7.1-8.9-12.6-16.1-15.4c-6.8-2.6-14.2-2.6-21,0c-9,0.4-68.9,0.3-77.9-0.1
	c-6.8-2.6-14.2-2.6-21,0c-7.3,2.8-13,8.3-16.1,15.4l-18.6,41.9c-6.5,14.7,0.2,31.9,14.9,38.4c3.4,1.5,7,2.2,10.6,2.3l0,53.4
	c0,4.4,3.6,7.9,7.9,7.9l121.8,0.1c4.4,0,7.9-3.6,7.9-7.9l0-53.3c3.8-0.1,7.4-0.9,11-2.4c7.1-3.1,12.6-8.9,15.4-16.1
	C846.9-321.1,846.7-329,843.6-336.2z M772.2-314l-2.6-63.7c3.4,0,6.6-0.1,9.5-0.1l10.9,61.7c-2.1,2.5-4.9,4.2-8.1,4.7
	C778.5-310.9,775-311.9,772.2-314z M753.7-377.5l2.6,63.8c-4.4,3-10.4,3.1-14.8,0.1l2.7-63.9C747.4-377.5,750.6-377.5,753.7-377.5z
	 M719-377.9c2.8,0,6,0.1,9.3,0.2l-2.7,63.8c-2.8,2-6.2,2.9-9.5,2.4c-3.2-0.5-6.1-2.2-8.1-4.7L719-377.9z M669.1-330l18.5-41.9
	c1.4-3.2,4-5.7,7.3-7c2.7-1,5.6-1.1,8.3-0.4l-11.1,61.9c-3.5,5.2-10.4,7.4-16.3,4.8C669.2-315.5,666.1-323.3,669.1-330z
	 M695.8-250.1l0-49.5c1.3-0.8,2.6-1.6,3.7-2.6c4,3.4,8.9,5.6,14.2,6.3c6.9,1,13.8-0.5,19.5-4.1c9.1,5.8,21.7,5.8,31-0.1
	c5.8,3.7,12.7,5.3,19.8,4.3c5.3-0.8,10.2-3,14.2-6.3c1,0.9,2.2,1.6,3.3,2.3l0,49.7L695.8-250.1z M829.2-319.7
	c-1.3,3.3-3.8,5.9-7,7.3c-5.8,2.6-12.8,0.3-16.2-4.9l-11-61.9c2.7-0.7,5.6-0.6,8.3,0.4c3.3,1.3,5.9,3.8,7.3,7l18.4,42
	C830.4-326.6,830.5-323,829.2-319.7z"/>
<g>
	<g>
		<path fill="#F7B10D" d="M1382-72.8c-6.5-19.1-12.3-38.4-17.2-58.1c18.4-20.2,89.3-17.5,109.7-0.3l-18.9,44.9
			c10.2-13.4,13.6-18.8,19.6-26.3c2.6,1.7,5,3.6,7.2,5.6c5.4,4.9,10.2,10.2,11.1,17.7c0.6,4.9-0.8,9.8-5.1,14.9l-43.3,50.5
			c-5.6-0.9-11-2.3-16.3-4.1c2.5-5.8,5.4-12.2,7.9-17.9l-15.8,17c-16.4-3.5-29.7-1.4-42,5.1l-44-52.8c-2.6-3.1-3.8-6.3-3.8-9.4
			c0-12.7,19-23.8,29-27.9L1382-72.8L1382-72.8z"/>
		<path fill="#F7B10D" d="M1438.4,22.6l-8.6-39.2c36.8,6.8,95.7,81.6,114.7,115.6c9.7,17.4,18.2,36.5,25.2,57.8
			c13.9,51.7,0.5,100.1-55.6,111.4c-35.1,7.1-100.7,7.5-137.7,5.6c-39.7-2-101.2-2-117.3-42.8c-25.9-65.9,21.6-144.3,64.9-192.3
			c5.7-6.3,11.6-12.2,17.7-17.7c15.7-13.9,32.8-30.3,53-37.2l-19.6,36.5l28.5-37.7h15L1438.4,22.6L1438.4,22.6z"/>
	</g>
	<path fill="#FFFFFF" d="M1413.4,53.7v6.6c6.9,0.7,12.9,2.2,17.9,4.3c5,2.2,9.3,5.4,13,9.8c2.9,3.3,5.2,6.7,6.8,10.2
		c1.6,3.5,2.4,6.7,2.4,9.7c0,3.3-1.2,6.1-3.6,8.4c-2.4,2.4-5.3,3.6-8.7,3.6c-6.4,0-10.5-3.5-12.4-10.3c-2.2-8.1-7.3-13.5-15.5-16.2
		v40.5c8,2.2,14.5,4.2,19.2,6c4.8,1.8,9.1,4.4,12.8,7.9c4,3.6,7.1,7.8,9.3,12.8c2.2,5,3.3,10.4,3.3,16.3c0,7.4-1.7,14.3-5.2,20.8
		c-3.5,6.5-8.6,11.7-15.4,15.9c-6.8,4.1-14.8,6.5-24.1,7.3v6.6c0,3.8-0.4,6.6-1.1,8.4c-0.7,1.7-2.4,2.6-4.9,2.6
		c-2.3,0-4-0.7-4.9-2.1c-0.9-1.4-1.4-3.6-1.4-6.7v-8.7c-7.6-0.8-14.2-2.6-19.9-5.4c-5.7-2.7-10.4-6.1-14.2-10.2
		c-3.8-4.1-6.6-8.3-8.4-12.7c-1.8-4.4-2.7-8.7-2.7-12.9c0-3.1,1.2-5.9,3.6-8.4c2.4-2.5,5.5-3.7,9.1-3.7c2.9,0,5.4,0.7,7.4,2
		c2,1.4,3.4,3.3,4.2,5.7c1.7,5.3,3.3,9.4,4.6,12.2c1.3,2.8,3.3,5.4,5.9,7.7c2.6,2.3,6.1,4.1,10.5,5.4v-45.3c-8.7-2.4-16-5.1-21.8-8
		c-5.8-3-10.6-7.1-14.2-12.6c-3.6-5.5-5.5-12.5-5.5-21c0-11.2,3.6-20.3,10.7-27.4c7.1-7.1,17.4-11.3,30.8-12.5v-6.4
		c0-5.5,2.1-8.2,6.1-8.2C1411.4,45.7,1413.4,48.3,1413.4,53.7L1413.4,53.7z M1401.1,116.5V79.2c-5.5,1.6-9.7,3.7-12.8,6.4
		c-3.1,2.6-4.6,6.7-4.6,12.1c0,5.1,1.4,9,4.3,11.6C1390.9,112,1395.2,114.4,1401.1,116.5L1401.1,116.5z M1413.4,145.4v42.7
		c6.6-1.3,11.6-3.9,15.2-7.9c3.6-4,5.4-8.6,5.4-13.9c0-5.7-1.7-10-5.2-13.1C1425.3,150.1,1420.2,147.5,1413.4,145.4L1413.4,145.4z"
		/>
</g>
<g>
	<path fill="#FFFFFF" d="M518.3,111c13.7-0.6,24.5,4.2,35.4,11.1c13.8,8.7,29.4,26.1,48.6,37c27,15.4,77-5.9,102.6,32.2
		c14.9,22.2,15.6,39.6,16.7,56.8c1.2,18.5,4.4,35.6,23.4,60.7c31.4,41.5,37.9,69.2,21.8,98c-11,19.7-34.3,30.6-39.7,43
		c-11.4,26.5,1.2,46.4-14.4,77.3c-10.9,21.4-27.7,35.5-50,42.7c-18.8,6.1-37.8-2.7-52.8,3.6c-26.5,11.1-46.1,37-67.2,43.6
		c-8.2,2.5-16.3,3.8-24.3,3.7c-8.1,0-16.2-1.2-24.4-3.7c-21.1-6.6-40.7-32.4-67.2-43.6c-15.1-6.4-34,2.4-52.8-3.6
		c-22.3-7.2-39.1-21.3-50-42.7c-15.7-30.9-3-50.8-14.5-77.3c-5.4-12.4-28.6-23.3-39.7-43c-16.2-28.8-9.6-56.5,21.8-98
		c19-25.1,22.2-42.2,23.4-60.7c1.1-17.2,1.8-34.6,16.7-56.8c25.6-38.1,75.6-16.8,102.6-32.2c19.2-11,34.7-28.3,48.6-37
		C493.8,115.2,504.6,110.5,518.3,111L518.3,111z"/>
	<path fill="#F7B10D" d="M518.2,203.5c89.7,0,162.4,72.7,162.4,162.4c0,89.7-72.7,162.4-162.4,162.4c-89.7,0-162.4-72.7-162.4-162.4
		C355.8,276.2,428.5,203.5,518.2,203.5L518.2,203.5z"/>
	<path fill="#F4F6F9" d="M455.2,318.2l44.3,42.2l76.3-77.6c7.6-7.7,12.3-13.8,21.6-4.2l30.2,31c9.9,9.8,9.4,15.6,0.1,24.7
		l-111,108.9c-19.7,19.3-16.3,20.5-36.3,0.7l-76.2-75.8c-4.2-4.5-3.7-9.1,0.8-13.6l35.1-36.4C445.5,312.6,449.8,312.9,455.2,318.2
		L455.2,318.2z"/>
</g>
<g>
	<g>
		<g>
			<path fill="#FFFFFF" d="M1388.2,847.4c-0.4-0.9-0.4-1.8,0-2.7l3.9-8c2.2-4.4,0.4-9.7-3.9-12l-7.8-4.1c-0.8-0.4-1.4-1.2-1.6-2.2
				l-1.5-8.7c-0.9-4.9-5.3-8.1-10.2-7.4l-8.8,1.2c-0.9,0.1-1.9-0.2-2.6-0.8l-6.4-6.2c-3.5-3.4-9.1-3.4-12.6,0l-6.4,6.2
				c-0.7,0.7-1.6,1-2.6,0.8l-8.8-1.2c-4.9-0.7-9.4,2.6-10.2,7.4l-1.5,8.7c-0.2,0.9-0.7,1.7-1.6,2.2l-7.8,4.1
				c-4.4,2.3-6.1,7.6-3.9,12l3.9,8c0.4,0.9,0.4,1.8,0,2.7l-3.9,8c-2.2,4.4-0.4,9.7,3.9,12l7.8,4.1c0.8,0.4,1.4,1.2,1.6,2.2l1.5,8.7
				c0.8,4.4,4.6,7.5,8.9,7.5c0.4,0,0.9,0,1.3-0.1l8.8-1.2c0.9-0.1,1.9,0.2,2.6,0.8l6.4,6.2c1.8,1.7,4,2.6,6.3,2.6
				c2.3,0,4.5-0.9,6.3-2.6l6.4-6.2c0.7-0.7,1.6-1,2.6-0.8l8.8,1.2c4.9,0.7,9.4-2.6,10.2-7.4l1.5-8.7c0.2-0.9,0.7-1.7,1.6-2.2
				l7.8-4.1c4.4-2.3,6.1-7.6,3.9-12L1388.2,847.4z M1385.3,862l-7.8,4.1c-2.5,1.3-4.2,3.7-4.7,6.5l-1.5,8.7
				c-0.3,1.6-1.8,2.7-3.5,2.5l-8.8-1.2c-2.8-0.4-5.6,0.5-7.6,2.5l-6.4,6.2c-1.2,1.2-3.1,1.2-4.3,0l-6.4-6.2c-1.7-1.7-4-2.6-6.3-2.6
				c-0.4,0-0.9,0-1.3,0.1l-8.8,1.2c-1.6,0.2-3.2-0.9-3.5-2.5l-1.5-8.7c-0.5-2.8-2.2-5.1-4.7-6.5l-7.8-4.1c-1.5-0.8-2.1-2.6-1.3-4.1
				l3.9-8c1.2-2.5,1.2-5.4,0-8l-3.9-8c-0.7-1.5-0.2-3.3,1.3-4.1l7.8-4.1c2.5-1.3,4.2-3.7,4.7-6.5l1.5-8.7c0.3-1.6,1.8-2.7,3.5-2.5
				l8.8,1.2c2.8,0.4,5.6-0.5,7.6-2.5l6.4-6.2c1.2-1.2,3.1-1.2,4.3,0l6.4,6.2c2,2,4.8,2.9,7.6,2.5l8.8-1.2c1.7-0.2,3.2,0.9,3.5,2.5
				l1.5,8.7c0.5,2.8,2.2,5.1,4.7,6.5l7.8,4.1c1.5,0.8,2.1,2.6,1.3,4.1l-3.9,8c-1.2,2.5-1.2,5.4,0,8l3.9,8
				C1387.4,859.4,1386.8,861.2,1385.3,862z"/>
		</g>
	</g>
	<g>
		<g>
			<path fill="#FFFFFF" d="M1365,824c-1.2-1.2-3.1-1.2-4.2,0l-39.7,39.7c-1.2,1.2-1.2,3.1,0,4.3c0.6,0.6,1.4,0.9,2.1,0.9
				c0.8,0,1.5-0.3,2.1-0.9l39.7-39.7C1366.1,827.1,1366.1,825.2,1365,824z"/>
		</g>
	</g>
	<g>
		<g>
			<path fill="#FFFFFF" d="M1331,819c-6.1,0-11,4.9-11,11s4.9,11,11,11s11-4.9,11-11S1337.1,819,1331,819z M1331,835
				c-2.8,0-5-2.2-5-5c0-2.8,2.2-5,5-5c2.8,0,5,2.2,5,5C1336,832.7,1333.7,835,1331,835z"/>
		</g>
	</g>
	<g>
		<g>
			<path fill="#FFFFFF" d="M1355,851c-6.1,0-11,4.9-11,11s4.9,11,11,11s11-4.9,11-11S1361.1,851,1355,851z M1355,867
				c-2.8,0-5-2.2-5-5s2.2-5,5-5c2.8,0,5,2.2,5,5S1357.8,867,1355,867z"/>
		</g>
	</g>
</g>
</svg>
