<?xml version="1.0" encoding="utf-8"?>
<!-- Generator: Adobe Illustrator 22.0.0, SVG Export Plug-In . SVG Version: 6.00 Build 0)  -->
<svg version="1.1" id="Layer_1" xmlns="http://www.w3.org/2000/svg" xmlns:xlink="http://www.w3.org/1999/xlink" x="0px" y="0px"
	 viewBox="0 0 464 464" style="enable-background:new 0 0 464 464;" xml:space="preserve">
<style type="text/css">
	.st0{fill:#4D4D4D;}
</style>
<g>
	<path class="st0" d="M336,440c0,13.2,10.8,24,24,24s24-10.8,24-24V336h-48V440z M360,432c4.4,0,8,3.6,8,8s-3.6,8-8,8s-8-3.6-8-8
		S355.6,432,360,432z"/>
	<path class="st0" d="M82.8,358.1l-32.4-32.4l11.3-11.3l15.6,15.6L94.7,288H32v80h96v-80h-16L82.8,358.1z"/>
	<path class="st0" d="M82.8,206.1l-32.4-32.4l11.3-11.3l15.6,15.6L94.7,136H32v80h96v-80h-16L82.8,206.1z"/>
	<path class="st0" d="M360,288c-2.7,0-5.3-0.2-8-0.4V320h16v-32.4C365.3,287.8,362.7,288,360,288z"/>
	<path class="st0" d="M336,285.6c-54.7-11.2-96-59.6-96-117.6c0-63.5,49.6-115.4,112-119.6V0H0v400h320v-80h16V285.6z M16,16h208v16
		H16V16z M160,200v-16h64v16H160z M224,216v16h-64v-16H224z M160,168v-16h64v16H160z M160,136v-16h64v16H160z M208,64V48h16v16H208z
		 M16,48h176v16H16V48z M144,384H16V272h85.3l11.3-27.1l14.8,6.2l-8.7,20.9H144V384z M144,232H16V120h85.3l11.3-27.1l14.8,6.2
		l-8.7,20.9H144V232z M256,384h-96v-16h96V384z M256,352h-96v-16h96V352z M256,320h-96v-16h96V320z M256,288h-96v-16h96V288z"/>
	<path class="st0" d="M360,64c-57.3,0-104,46.7-104,104s46.7,104,104,104s104-46.7,104-104S417.3,64,360,64z M360,256
		c-48.5,0-88-39.5-88-88s39.5-88,88-88s88,39.5,88,88S408.5,256,360,256z"/>
	<path class="st0" d="M360,96c-39.7,0-72,32.3-72,72s32.3,72,72,72s72-32.3,72-72S399.7,96,360,96z M355.1,219.7l-31.5-21l8.9-13.3
		l16.5,11l35.9-71.9l14.3,7.2L355.1,219.7z"/>
</g>
</svg>
