<?xml version="1.0" encoding="utf-8"?>
<!-- Generator: Adobe Illustrator 22.0.0, SVG Export Plug-In . SVG Version: 6.00 Build 0)  -->
<svg version="1.2" baseProfile="tiny" id="Layer_1" xmlns="http://www.w3.org/2000/svg" xmlns:xlink="http://www.w3.org/1999/xlink"
	 x="0px" y="0px" viewBox="0 0 595.3 841.9" xml:space="preserve">
<g>
	<g>
		<g>
			<path fill="#FFFFFF" d="M482,275c-4.4-4.4-11.6-4.4-16,0l-32.9,32.9c-2-1-4.2-1.7-6.4-2.3l-102.4-25.3
				c-11.5-2.9-23.8,0.5-32.2,8.9L109.3,471.8c-13.2,13.2-13.2,34.8,0,48l127.9,127.9c13.2,13.2,34.8,13.2,48,0l182.6-182.9
				c8.4-8.4,11.8-20.7,8.9-32.2l-25.3-102.4c-0.6-2.2-1.3-4.4-2.3-6.4L482,291C486.4,286.6,486.4,279.4,482,275z M454.7,438.1
				c1,3.8-0.2,7.9-3,10.7L269.2,631.8c-4.4,4.4-11.6,4.4-16,0L125.3,503.8c-4.4-4.4-4.4-11.6,0-16l182.9-182.6
				c2.1-2.1,5.1-3.3,8-3.3c0.9,0,1.8,0.1,2.7,0.3L415,326l-27.2,27.2c-12.6-6-28.2-3.8-38.6,6.6c-13.2,13.2-13.2,34.8,0,48
				c6.6,6.6,15.3,9.9,24,9.9c8.7,0,17.4-3.3,24-9.9c10.4-10.4,12.6-26,6.6-38.6L431,342L454.7,438.1z M381.2,391.9
				c-4.4,4.4-11.6,4.4-16,0c-4.4-4.4-4.4-11.6,0-16c2.2-2.2,5.1-3.3,8-3.3c2.9,0,5.8,1.1,8,3.3l0,0l0,0
				C385.6,380.3,385.6,387.4,381.2,391.9z"/>
		</g>
	</g>
	<g>
		<g>
			<path fill="#FFFFFF" d="M285.2,407.8c-13.2-13.2-34.8-13.2-48,0c-13.2,13.2-13.2,34.8,0,48c13.2,13.2,34.8,13.2,48,0
				C298.4,442.6,298.4,421.1,285.2,407.8z M269.2,439.8c-4.4,4.4-11.6,4.4-16,0s-4.4-11.6,0-16c4.4-4.4,11.6-4.4,16,0
				C273.6,428.2,273.6,435.4,269.2,439.8z"/>
		</g>
	</g>
	<g>
		<g>
			<path fill="#FFFFFF" d="M301.2,519.8c-13.3-13.3-34.7-13.3-48,0c-13.2,13.2-13.2,34.8,0,48c13.3,13.3,34.7,13.3,48,0
				C314.4,554.6,314.4,533,301.2,519.8z M285.2,551.8c-4.4,4.4-11.6,4.4-16,0c-4.4-4.4-4.4-11.6,0-16c4.4-4.4,11.6-4.4,16,0
				C289.6,540.2,289.6,547.4,285.2,551.8z"/>
		</g>
	</g>
	<g>
		<g>
			<path fill="#FFFFFF" d="M352.4,478.6c-0.7-6.2-6.3-10.7-12.5-10l-143.9,16c-6.2,0.7-10.7,6.3-10,12.5c0.6,5.8,5.5,10.1,11.2,10.1
				c0.4,0,0.8,0,1.3-0.1l143.9-16C348.6,490.4,353.1,484.8,352.4,478.6z"/>
		</g>
	</g>
</g>
<g>
	<path fill="#FDC40A" d="M-857.9,798c0,1.2,0.5,2.3,1.3,3.2l29.5,29.5c0.8,0.8,2,1.3,3.2,1.3c1.2,0,2.3-0.5,3.2-1.3l2.7-2.7
		c0.8-0.8,1.3-2,1.3-3.1c0-1.2-0.5-2.3-1.3-3.1l-17.4-17.4h54.9c2.5,0,4.4-2.1,4.4-4.6V796c0-2.5-1.9-4.4-4.4-4.4h-54.7l17.2-17.3
		c0.8-0.8,1.3-2,1.3-3.2c0-1.2-0.5-2.3-1.3-3.2l-2.7-2.7c-0.8-0.8-2-1.3-3.2-1.3c-1.2,0-2.3,0.5-3.2,1.3l-29.5,29.5
		C-857.4,795.7-857.9,796.8-857.9,798z"/>
</g>
<g id="_02-shop_7_">
	<g id="Glyph_7_">
		<path fill="#B51831" d="M-219,844h-186v7.8c0,8.6,6.9,15.5,15.5,15.5h23.2c8.6,0,15.5-6.9,15.5-15.5c0,8.6,6.9,15.5,15.5,15.5
			h46.5c8.6,0,15.5-6.9,15.5-15.5c0,8.6,6.9,15.5,15.5,15.5h23.2c8.6,0,15.5-6.9,15.5-15.5L-219,844L-219,844z"/>
		<path fill="#B51831" d="M-220.9,836.2l-13.9-48.6c-1-3.3-4-5.6-7.5-5.6h-35.5l10.8,54.2H-220.9z"/>
		<path fill="#B51831" d="M-346.3,782h-35.5c-3.5,0-6.5,2.3-7.5,5.6l-13.9,48.6h46L-346.3,782z"/>
		<path fill="#B51831" d="M-293.6,782h-36.9l-10.9,54.2h58.6L-293.6,782z"/>
		<path fill="#B51831" d="M-257.8,875c-5.7,0-11.2-2.1-15.5-5.9c-4.3,3.8-9.8,5.9-15.5,5.9h-46.5c-5.7,0-11.2-2.1-15.5-5.9
			c-4.3,3.8-9.8,5.9-15.5,5.9h-23.2c-2.6,0-5.3-0.5-7.8-1.4v86.6c0,4.3,3.5,7.8,7.8,7.8h15.5v-69.8c0-4.3,3.5-7.8,7.8-7.8h38.8
			c4.3,0,7.8,3.5,7.8,7.8V968h85.2c4.3,0,7.8-3.5,7.8-7.8v-86.6c-2.5,0.9-5.1,1.4-7.8,1.4H-257.8z M-250,921.5
			c0,4.3-3.5,7.8-7.8,7.8h-38.8c-4.3,0-7.8-3.5-7.8-7.8v-23.2c0-4.3,3.5-7.8,7.8-7.8h38.8c4.3,0,7.8,3.5,7.8,7.8V921.5z"/>
	</g>
</g>
<path fill="#676767" d="M-544.9,1039.8l-11.5-26.2c-1.9-4.4-5.5-7.9-10-9.6c-4.2-1.7-8.9-1.7-13.1,0c-5.6,0.3-43,0.2-48.6-0.1
	c-4.2-1.6-8.8-1.6-13.1,0c-4.5,1.7-8.1,5.2-10,9.6l-11.5,26.1c-4,9.2,0.1,19.9,9.3,23.9c2.1,0.9,4.3,1.4,6.6,1.5l0,33.3
	c0,2.7,2.2,5,4.9,5l75.9,0.1c2.7,0,5-2.2,5-4.9l0-33.3c2.4-0.1,4.6-0.6,6.8-1.5c4.4-1.9,7.9-5.5,9.6-10
	C-542.9,1049.2-543,1044.2-544.9,1039.8z M-589.4,1053.6l-1.6-39.7c2.1,0,4.1-0.1,5.9-0.1l6.8,38.5c-1.3,1.6-3.1,2.6-5.1,2.9
	C-585.5,1055.5-587.7,1054.9-589.4,1053.6z M-600.9,1014l1.6,39.8c-2.7,1.9-6.5,1.9-9.2,0.1l1.7-39.8
	C-604.9,1014-602.9,1014-600.9,1014z M-622.6,1013.8c1.8,0,3.7,0.1,5.8,0.1l-1.7,39.8c-1.7,1.2-3.8,1.8-5.9,1.5
	c-2-0.3-3.8-1.4-5.1-2.9L-622.6,1013.8z M-653.7,1043.6l11.5-26.1c0.9-2,2.5-3.6,4.6-4.4c1.7-0.6,3.5-0.7,5.2-0.2l-6.9,38.6
	c-2.2,3.2-6.5,4.6-10.1,3C-653.7,1052.7-655.6,1047.8-653.7,1043.6z M-637,1093.4l0-30.8c0.8-0.5,1.6-1,2.3-1.6
	c2.5,2.1,5.5,3.5,8.9,4c4.3,0.6,8.6-0.3,12.2-2.6c5.7,3.6,13.5,3.6,19.3-0.1c3.6,2.3,7.9,3.3,12.4,2.7c3.3-0.5,6.4-1.9,8.9-3.9
	c0.7,0.5,1.4,1,2.1,1.4l0,31L-637,1093.4z M-553.9,1050.1c-0.8,2.1-2.4,3.7-4.4,4.6c-3.6,1.6-8,0.2-10.1-3l-6.8-38.6
	c1.7-0.5,3.5-0.4,5.2,0.2c2.1,0.8,3.7,2.4,4.6,4.4l11.5,26.2C-553.1,1045.8-553.1,1048-553.9,1050.1z"/>
<path fill-rule="evenodd" fill="#676767" d="M-276.9,1187.7l-8.1-3.1c-2.3-0.9-3.4-3.5-2.4-5.8l3.5-7.9c0.7-1.6,0.4-3.5-0.9-4.8
	l-5.6-5.6c-1.3-1.3-3.2-1.6-4.8-0.9l-7.9,3.5c-2.3,1-4.9-0.1-5.8-2.4l-3.1-8.1c-0.6-1.7-2.2-2.8-4-2.8l-8,0c-1.8,0-3.4,1.1-4,2.8
	l-3.1,8.1c-0.9,2.3-3.5,3.4-5.8,2.4l-7.9-3.5c-1.6-0.7-3.5-0.4-4.8,0.9l-5.6,5.6c-1.3,1.3-1.6,3.2-0.9,4.8l3.5,7.9
	c1,2.3-0.1,4.9-2.4,5.8l-8.1,3.1c-1.7,0.6-2.8,2.2-2.8,4l0,8c0,1.8,1.1,3.4,2.8,4l8.1,3.1c2.3,0.9,3.4,3.5,2.4,5.8l-3.5,7.9
	c-0.7,1.6-0.4,3.5,0.9,4.8l5.6,5.7c1.3,1.3,3.2,1.6,4.8,0.9l7.9-3.5c2.3-1,4.9,0.1,5.8,2.4l3.1,8.1c0.6,1.7,2.2,2.8,4,2.8l8,0
	c1.8,0,3.4-1.1,4-2.8l3.1-8.1c0.9-2.3,3.5-3.4,5.8-2.4l7.9,3.5c1.6,0.7,3.5,0.4,4.8-0.9l5.6-5.6c1.3-1.3,1.6-3.2,0.9-4.8l-3.5-7.9
	c-1-2.3,0.1-4.9,2.4-5.8l8.1-3.1c1.7-0.6,2.8-2.2,2.8-4l0-8C-274.2,1190-275.3,1188.4-276.9,1187.7z M-316,1215.7
	c-14.4,2.7-26.7-9.7-23.9-24c1.5-8,8-14.5,16-16c14.4-2.7,26.7,9.7,23.9,24C-301.5,1207.7-308,1214.2-316,1215.7z"/>
<g>
	<path fill="#676767" d="M-81,1168.9l-92.9-0.1c-2.7,0-4.9-2.2-4.9-5c0-2.7,2.2-4.9,5-4.9l92.9,0.1c2.7,0,4.9,2.2,4.9,5
		C-76,1166.7-78.3,1168.9-81,1168.9z"/>
	<path fill="#676767" d="M-81,1200.9l-92.9-0.1c-2.7,0-4.9-2.2-4.9-5s2.2-4.9,5-4.9l92.9,0.1c2.7,0,4.9,2.2,4.9,5
		C-76.1,1198.7-78.3,1200.9-81,1200.9z"/>
	<path fill="#676767" d="M-81.1,1232.9l-92.9-0.1c-2.7,0-4.9-2.2-4.9-5c0-2.7,2.2-4.9,5-4.9l92.9,0.1c2.7,0,4.9,2.2,4.9,5
		S-78.3,1232.9-81.1,1232.9z"/>
</g>
<g>
	<path fill="#676767" d="M-485,1167c0-10.6-8.6-19.2-19.2-19.2c-10.6,0-19.2,8.6-19.2,19.2c0,10.6,8.6,19.2,19.2,19.2
		C-493.6,1186.2-485,1177.6-485,1167z"/>
	<path fill="#676767" d="M-470.3,1239.9c-2.7,0-65.3-0.1-68-0.1c-2.7,0-4.9-2.2-4.9-5c0-21.5,17.5-38.9,39-38.9
		c21.5,0,38.9,17.5,38.9,39C-465.3,1237.7-467.5,1239.9-470.3,1239.9z"/>
</g>
<path fill="#B41731" d="M-634.6,1172.1c-0.7-0.8-1.7-1.3-2.8-1.3l-81,0.4l-1.1-11c-0.1-5.9-5-10.6-10.9-10.6l-22.1,0.1
	c-2,0-3.6,1.6-3.6,3.6c0,2,1.6,3.6,3.6,3.6l22.1-0.1c2,0,3.6,1.6,3.6,3.6c0,0.3,1.1,10.7,6.1,54.8c-4,1.6-6.9,5.5-6.8,10.1
	c0,6,4.9,10.8,10.9,10.8l4.2,0c-0.4,1.1-0.6,2.4-0.6,3.6c0,6,4.9,10.8,10.9,10.8c6,0,10.8-4.9,10.8-10.9c0-1.3-0.2-2.5-0.6-3.6
	l22.9-0.1c-0.4,1.1-0.6,2.3-0.6,3.6c0,6,4.9,10.8,10.9,10.8c6,0,10.8-4.9,10.8-10.9c0-6-4.9-10.8-10.9-10.8l-57.7,0.3
	c-2,0-3.6-1.6-3.6-3.6c0-2,1.6-3.6,3.6-3.6l66.1-0.3c5.3,0,9.8-3.8,10.6-9.1l6-37.3C-633.6,1174-633.9,1173-634.6,1172.1z
	 M-658.7,1235.9c2,0,3.6,1.6,3.6,3.6s-1.6,3.6-3.6,3.6c-2,0-3.6-1.6-3.6-3.6C-662.3,1237.6-660.7,1235.9-658.7,1235.9z M-702,1236.1
	c2,0,3.6,1.6,3.6,3.6c0,2-1.6,3.6-3.6,3.6c-2,0-3.6-1.6-3.6-3.6C-705.6,1237.8-704,1236.1-702,1236.1z"/>
</svg>
