<?xml version="1.0" encoding="utf-8"?>
<!-- Generator: Adobe Illustrator 22.0.0, SVG Export Plug-In . SVG Version: 6.00 Build 0)  -->
<svg version="1.2" baseProfile="tiny" id="Layer_1" xmlns="http://www.w3.org/2000/svg" xmlns:xlink="http://www.w3.org/1999/xlink"
	 x="0px" y="0px" viewBox="0 0 595.3 841.9" xml:space="preserve">
<path fill="#676767" d="M-544.9,1039.8l-11.5-26.2c-1.9-4.4-5.5-7.9-10-9.6c-4.2-1.7-8.9-1.7-13.1,0c-5.6,0.3-43,0.2-48.6-0.1
	c-4.2-1.6-8.8-1.6-13.1,0c-4.5,1.7-8.1,5.2-10,9.6l-11.5,26.1c-4,9.2,0.1,19.9,9.3,23.9c2.1,0.9,4.3,1.4,6.6,1.5l0,33.3
	c0,2.7,2.2,5,4.9,5l75.9,0.1c2.7,0,5-2.2,5-4.9l0-33.3c2.4-0.1,4.6-0.6,6.8-1.5c4.4-1.9,7.9-5.5,9.6-10
	C-542.9,1049.2-543,1044.2-544.9,1039.8z M-589.4,1053.6l-1.6-39.7c2.1,0,4.1-0.1,5.9-0.1l6.8,38.5c-1.3,1.6-3.1,2.6-5.1,2.9
	C-585.5,1055.5-587.7,1054.9-589.4,1053.6z M-600.9,1014l1.6,39.8c-2.7,1.9-6.5,1.9-9.2,0.1l1.7-39.8
	C-604.9,1014-602.9,1014-600.9,1014z M-622.6,1013.8c1.8,0,3.7,0.1,5.8,0.1l-1.7,39.8c-1.7,1.2-3.8,1.8-5.9,1.5
	c-2-0.3-3.8-1.4-5.1-2.9L-622.6,1013.8z M-653.7,1043.6l11.5-26.1c0.9-2,2.5-3.6,4.6-4.4c1.7-0.6,3.5-0.7,5.2-0.2l-6.9,38.6
	c-2.2,3.2-6.5,4.6-10.1,3C-653.7,1052.7-655.6,1047.8-653.7,1043.6z M-637,1093.4l0-30.8c0.8-0.5,1.6-1,2.3-1.6
	c2.5,2.1,5.5,3.5,8.9,4c4.3,0.6,8.6-0.3,12.2-2.6c5.7,3.6,13.5,3.6,19.3-0.1c3.6,2.3,7.9,3.3,12.4,2.7c3.3-0.5,6.4-1.9,8.9-3.9
	c0.7,0.5,1.4,1,2.1,1.4l0,31L-637,1093.4z M-553.9,1050.1c-0.8,2.1-2.4,3.7-4.4,4.6c-3.6,1.6-8,0.2-10.1-3l-6.8-38.6
	c1.7-0.5,3.5-0.4,5.2,0.2c2.1,0.8,3.7,2.4,4.6,4.4l11.5,26.2C-553.1,1045.8-553.1,1048-553.9,1050.1z"/>
<path fill-rule="evenodd" fill="#676767" d="M-276.9,1187.7l-8.1-3.1c-2.3-0.9-3.4-3.5-2.4-5.8l3.5-7.9c0.7-1.6,0.4-3.5-0.9-4.8
	l-5.6-5.6c-1.3-1.3-3.2-1.6-4.8-0.9l-7.9,3.5c-2.3,1-4.9-0.1-5.8-2.4l-3.1-8.1c-0.6-1.7-2.2-2.8-4-2.8l-8,0c-1.8,0-3.4,1.1-4,2.8
	l-3.1,8.1c-0.9,2.3-3.5,3.4-5.8,2.4l-7.9-3.5c-1.6-0.7-3.5-0.4-4.8,0.9l-5.6,5.6c-1.3,1.3-1.6,3.2-0.9,4.8l3.5,7.9
	c1,2.3-0.1,4.9-2.4,5.8l-8.1,3.1c-1.7,0.6-2.8,2.2-2.8,4l0,8c0,1.8,1.1,3.4,2.8,4l8.1,3.1c2.3,0.9,3.4,3.5,2.4,5.8l-3.5,7.9
	c-0.7,1.6-0.4,3.5,0.9,4.8l5.6,5.7c1.3,1.3,3.2,1.6,4.8,0.9l7.9-3.5c2.3-1,4.9,0.1,5.8,2.4l3.1,8.1c0.6,1.7,2.2,2.8,4,2.8l8,0
	c1.8,0,3.4-1.1,4-2.8l3.1-8.1c0.9-2.3,3.5-3.4,5.8-2.4l7.9,3.5c1.6,0.7,3.5,0.4,4.8-0.9l5.6-5.6c1.3-1.3,1.6-3.2,0.9-4.8l-3.5-7.9
	c-1-2.3,0.1-4.9,2.4-5.8l8.1-3.1c1.7-0.6,2.8-2.2,2.8-4l0-8C-274.2,1190-275.3,1188.4-276.9,1187.7z M-316,1215.7
	c-14.4,2.7-26.7-9.7-23.9-24c1.5-8,8-14.5,16-16c14.4-2.7,26.7,9.7,23.9,24C-301.5,1207.7-308,1214.2-316,1215.7z"/>
<g>
	<path fill="#676767" d="M-81,1168.9l-92.9-0.1c-2.7,0-4.9-2.2-4.9-5c0-2.7,2.2-4.9,5-4.9l92.9,0.1c2.7,0,4.9,2.2,4.9,5
		C-76,1166.7-78.3,1168.9-81,1168.9z"/>
	<path fill="#676767" d="M-81,1200.9l-92.9-0.1c-2.7,0-4.9-2.2-4.9-5s2.2-4.9,5-4.9l92.9,0.1c2.7,0,4.9,2.2,4.9,5
		C-76.1,1198.7-78.3,1200.9-81,1200.9z"/>
	<path fill="#676767" d="M-81.1,1232.9l-92.9-0.1c-2.7,0-4.9-2.2-4.9-5c0-2.7,2.2-4.9,5-4.9l92.9,0.1c2.7,0,4.9,2.2,4.9,5
		S-78.3,1232.9-81.1,1232.9z"/>
</g>
<g>
	<path fill="#676767" d="M-485,1167c0-10.6-8.6-19.2-19.2-19.2c-10.6,0-19.2,8.6-19.2,19.2c0,10.6,8.6,19.2,19.2,19.2
		C-493.6,1186.2-485,1177.6-485,1167z"/>
	<path fill="#676767" d="M-470.3,1239.9c-2.7,0-65.3-0.1-68-0.1c-2.7,0-4.9-2.2-4.9-5c0-21.5,17.5-38.9,39-38.9
		c21.5,0,38.9,17.5,38.9,39C-465.3,1237.7-467.5,1239.9-470.3,1239.9z"/>
</g>
<path fill="#B41731" d="M487.1,284.5c-2.4-2.8-5.8-4.3-9.4-4.3l-277.3,1.3l-3.7-37.6c-0.5-20.1-17-36.2-37.2-36.2L83.6,208
	c-6.8,0-12.3,5.6-12.3,12.4c0,6.8,5.6,12.3,12.4,12.3l75.8-0.3c6.8,0,12.4,5.5,12.4,12.3c0,1.1,3.7,36.5,21,187.6
	c-13.7,5.5-23.5,18.9-23.4,34.6c0.1,20.4,16.8,37,37.2,36.9l14.5-0.1c-1.4,3.9-2.1,8.1-2.1,12.4c0.1,20.4,16.8,37,37.2,36.9
	c20.4-0.1,37-16.8,36.9-37.2c0-4.3-0.8-8.5-2.2-12.4l78.4-0.4c-1.4,3.9-2.1,8-2.1,12.4c0.1,20.4,16.8,37,37.2,36.9
	c20.4-0.1,37-16.8,36.9-37.2c-0.1-20.4-16.8-37-37.2-36.9l-197.7,0.9c-6.8,0-12.4-5.5-12.4-12.3c0-6.8,5.5-12.4,12.3-12.4l226.2-1
	c18.2-0.1,33.5-13.2,36.4-31.1l20.7-127.7C490.5,290.9,489.5,287.3,487.1,284.5z M404.5,503c6.8,0,12.4,5.5,12.4,12.3
	c0,6.8-5.5,12.4-12.3,12.4c-6.8,0-12.4-5.5-12.4-12.3C392.2,508.5,397.7,503,404.5,503z M256.3,503.6c6.8,0,12.4,5.5,12.4,12.3
	c0,6.8-5.5,12.4-12.3,12.4c-6.8,0-12.4-5.5-12.4-12.3C243.9,509.2,249.4,503.7,256.3,503.6z"/>
</svg>
