<?xml version="1.0" encoding="utf-8"?>
<!-- Generator: Adobe Illustrator 22.0.0, SVG Export Plug-In . SVG Version: 6.00 Build 0)  -->
<svg version="1.1" id="Capa_1" xmlns="http://www.w3.org/2000/svg" xmlns:xlink="http://www.w3.org/1999/xlink" x="0px" y="0px"
	 viewBox="0 0 612 612" style="enable-background:new 0 0 612 612;" xml:space="preserve">
<style type="text/css">
	.st0{fill:#FFFFFF;}
</style>
<g>
	<path class="st0" d="M580.6,135.7l-83.3-37L234.5,222.3v79.4l-45.9-20.4v-79.4L451.5,78.3L363.2,39c-11.8-5.3-31.2-5.3-43,0
		l-217.4,96.7c-17.3,7.7-31.5,29.5-31.4,48.5l0.3,143.2c13.6-4.4,28.1-6.8,43.2-6.8c77.9,0,141.4,63.4,141.4,141.4
		c0,20.4-4.4,39.7-12.2,57.2l76.8,32.8c11.4,4.9,30.1,4.9,41.6,0l216.9-92.7c17.6-7.5,32.1-29.4,32.1-48.5l0.5-226.6
		C612,165.2,597.9,143.4,580.6,135.7z M496.7,300.2l29.5-62.1c3-6.3,10.4-9.9,13.4-6.5l30.2,34.5c3,3.4-0.8,11.3-6.9,14.1l-12.7,5.9
		l-0.3,89.5c0,3.9-3.5,8.6-7.7,10.4l-19,8.2c-4.2,1.8-7.6,0.1-7.6-3.7l-0.1-88.4l-12.3,5.7C497.4,310.4,493.8,306.2,496.7,300.2z
		 M388,350.9l26.8-59.1c2.7-6,9.6-9.3,12.4-6l28.5,33.4c2.9,3.3-0.6,10.8-6.2,13.4l-11.8,5.5l0.8,85.7c0,3.7-3.1,8.2-7.1,9.9
		l-17.7,7.6c-3.9,1.7-7,0-7.1-3.7l-1-84.6l-11.4,5.3C388.9,360.8,385.4,356.7,388,350.9z M583.9,399.3c0,2-1.8,4.3-3.9,5.2
		l-201.8,84.8c-1.9,0.8-3.4,0-3.5-1.9l-0.2-9.9c0-1.8,1.5-3.9,3.4-4.7L580,386.7c2.2-0.9,3.9-0.1,3.9,1.9V399.3z M114.9,347.1
		C51.5,347.1,0,398.5,0,462s51.5,114.9,114.9,114.9s115-51.4,115-114.9S178.4,347.1,114.9,347.1z M190,438.4L119.3,518
		c-3.5,3.9-8.3,5.9-13.2,5.9c-3.9,0-7.8-1.3-11-3.9l-44.2-35.4c-7.6-6.1-8.9-17.2-2.8-24.8c6.1-7.6,17.2-8.9,24.9-2.8l31.1,24.9
		l59.6-67c6.5-7.3,17.7-8,25-1.5C195.9,419.9,196.5,431.1,190,438.4z"/>
</g>
</svg>
