<?xml version="1.0" encoding="utf-8"?>
<!-- Generator: Adobe Illustrator 22.0.0, SVG Export Plug-In . SVG Version: 6.00 Build 0)  -->
<svg version="1.2" baseProfile="tiny" id="Layer_1" xmlns="http://www.w3.org/2000/svg" xmlns:xlink="http://www.w3.org/1999/xlink"
	 x="0px" y="0px" viewBox="0 0 595.3 841.9" xml:space="preserve">
<path fill="#676767" d="M513.3,354.5l-40.3-92c-6.8-15.6-19.4-27.6-35.2-33.8c-14.9-5.8-31.1-5.8-46-0.1
	c-19.7,0.9-151.1,0.7-170.8-0.2c-14.9-5.8-31.1-5.7-46,0c-15.9,6.1-28.4,18.1-35.3,33.7L99,354c-14.2,32.2,0.4,69.9,32.6,84.2
	c7.4,3.3,15.3,4.8,23.2,5.1l-0.1,117.1c0,9.6,7.8,17.4,17.4,17.4l266.9,0.3c9.6,0,17.4-7.8,17.4-17.4l0.1-116.9
	c8.3-0.2,16.3-2,24-5.3c15.6-6.8,27.6-19.4,33.8-35.2C520.5,387.4,520.1,370.1,513.3,354.5z M356.9,403.1l-5.6-139.5
	c7.5-0.1,14.5-0.2,20.9-0.3L396,398.5c-4.5,5.5-10.8,9.2-17.8,10.2C370.6,409.8,363,407.6,356.9,403.1z M316.4,263.8l5.7,139.8
	c-9.6,6.6-22.7,6.7-32.4,0.3l6-140.1C302.5,263.8,309.5,263.8,316.4,263.8z M240.4,263.1c6.2,0.1,13.1,0.3,20.4,0.4l-6,139.8
	c-6.1,4.4-13.5,6.3-20.8,5.2c-7.1-1.1-13.3-4.8-17.8-10.3L240.4,263.1z M130.9,368l40.6-91.9c3.1-7.1,8.8-12.5,16.1-15.3
	c5.9-2.3,12.2-2.5,18.1-0.8l-24.3,135.7c-7.6,11.4-22.9,16.2-35.7,10.6C131.1,399.8,124.4,382.6,130.9,368z M189.5,543l0.1-108.4
	c2.9-1.7,5.6-3.5,8.2-5.6c8.8,7.4,19.5,12.2,31.2,13.9c15.1,2.2,30.2-1.1,42.8-9c20,12.7,47.6,12.7,67.9-0.3
	c12.7,8.2,27.8,11.7,43.4,9.5c11.7-1.7,22.4-6.5,31.2-13.9c2.3,1.9,4.8,3.5,7.3,5.1l-0.1,108.9L189.5,543z M481.9,390.6
	c-2.8,7.2-8.3,12.9-15.4,16c-12.8,5.6-28,0.7-35.6-10.7l-24-135.7c6-1.6,12.3-1.4,18.1,0.9c7.2,2.8,12.9,8.3,16,15.4l40.3,92
	C484.5,375.5,484.7,383.4,481.9,390.6z"/>
<path fill-rule="evenodd" fill="#676767" d="M-276.9,1187.7l-8.1-3.1c-2.3-0.9-3.4-3.5-2.4-5.8l3.5-7.9c0.7-1.6,0.4-3.5-0.9-4.8
	l-5.6-5.6c-1.3-1.3-3.2-1.6-4.8-0.9l-7.9,3.5c-2.3,1-4.9-0.1-5.8-2.4l-3.1-8.1c-0.6-1.7-2.2-2.8-4-2.8l-8,0c-1.8,0-3.4,1.1-4,2.8
	l-3.1,8.1c-0.9,2.3-3.5,3.4-5.8,2.4l-7.9-3.5c-1.6-0.7-3.5-0.4-4.8,0.9l-5.6,5.6c-1.3,1.3-1.6,3.2-0.9,4.8l3.5,7.9
	c1,2.3-0.1,4.9-2.4,5.8l-8.1,3.1c-1.7,0.6-2.8,2.2-2.8,4l0,8c0,1.8,1.1,3.4,2.8,4l8.1,3.1c2.3,0.9,3.4,3.5,2.4,5.8l-3.5,7.9
	c-0.7,1.6-0.4,3.5,0.9,4.8l5.6,5.7c1.3,1.3,3.2,1.6,4.8,0.9l7.9-3.5c2.3-1,4.9,0.1,5.8,2.4l3.1,8.1c0.6,1.7,2.2,2.8,4,2.8l8,0
	c1.8,0,3.4-1.1,4-2.8l3.1-8.1c0.9-2.3,3.5-3.4,5.8-2.4l7.9,3.5c1.6,0.7,3.5,0.4,4.8-0.9l5.6-5.6c1.3-1.3,1.6-3.2,0.9-4.8l-3.5-7.9
	c-1-2.3,0.1-4.9,2.4-5.8l8.1-3.1c1.7-0.6,2.8-2.2,2.8-4l0-8C-274.2,1190-275.3,1188.4-276.9,1187.7z M-316,1215.7
	c-14.4,2.7-26.7-9.7-23.9-24c1.5-8,8-14.5,16-16c14.4-2.7,26.7,9.7,23.9,24C-301.5,1207.7-308,1214.2-316,1215.7z"/>
<g>
	<path fill="#676767" d="M-81,1168.9l-92.9-0.1c-2.7,0-4.9-2.2-4.9-5c0-2.7,2.2-4.9,5-4.9l92.9,0.1c2.7,0,4.9,2.2,4.9,5
		C-76,1166.7-78.3,1168.9-81,1168.9z"/>
	<path fill="#676767" d="M-81,1200.9l-92.9-0.1c-2.7,0-4.9-2.2-4.9-5s2.2-4.9,5-4.9l92.9,0.1c2.7,0,4.9,2.2,4.9,5
		C-76.1,1198.7-78.3,1200.9-81,1200.9z"/>
	<path fill="#676767" d="M-81.1,1232.9l-92.9-0.1c-2.7,0-4.9-2.2-4.9-5c0-2.7,2.2-4.9,5-4.9l92.9,0.1c2.7,0,4.9,2.2,4.9,5
		S-78.3,1232.9-81.1,1232.9z"/>
</g>
<g>
	<path fill="#676767" d="M-485,1167c0-10.6-8.6-19.2-19.2-19.2c-10.6,0-19.2,8.6-19.2,19.2c0,10.6,8.6,19.2,19.2,19.2
		C-493.6,1186.2-485,1177.6-485,1167z"/>
	<path fill="#676767" d="M-470.3,1239.9c-2.7,0-65.3-0.1-68-0.1c-2.7,0-4.9-2.2-4.9-5c0-21.5,17.5-38.9,39-38.9
		c21.5,0,38.9,17.5,38.9,39C-465.3,1237.7-467.5,1239.9-470.3,1239.9z"/>
</g>
</svg>
