<?xml version="1.0" encoding="utf-8"?>
<!-- Generator: Adobe Illustrator 22.0.0, SVG Export Plug-In . SVG Version: 6.00 Build 0)  -->
<svg version="1.2" baseProfile="tiny" id="Layer_1" xmlns="http://www.w3.org/2000/svg" xmlns:xlink="http://www.w3.org/1999/xlink"
	 x="0px" y="0px" viewBox="0 0 595.3 841.9" xml:space="preserve">
<path fill-rule="evenodd" fill="#676767" d="M-276.9,1187.7l-8.1-3.1c-2.3-0.9-3.4-3.5-2.4-5.8l3.5-7.9c0.7-1.6,0.4-3.5-0.9-4.8
	l-5.6-5.6c-1.3-1.3-3.2-1.6-4.8-0.9l-7.9,3.5c-2.3,1-4.9-0.1-5.8-2.4l-3.1-8.1c-0.6-1.7-2.2-2.8-4-2.8l-8,0c-1.8,0-3.4,1.1-4,2.8
	l-3.1,8.1c-0.9,2.3-3.5,3.4-5.8,2.4l-7.9-3.5c-1.6-0.7-3.5-0.4-4.8,0.9l-5.6,5.6c-1.3,1.3-1.6,3.2-0.9,4.8l3.5,7.9
	c1,2.3-0.1,4.9-2.4,5.8l-8.1,3.1c-1.7,0.6-2.8,2.2-2.8,4l0,8c0,1.8,1.1,3.4,2.8,4l8.1,3.1c2.3,0.9,3.4,3.5,2.4,5.8l-3.5,7.9
	c-0.7,1.6-0.4,3.5,0.9,4.8l5.6,5.7c1.3,1.3,3.2,1.6,4.8,0.9l7.9-3.5c2.3-1,4.9,0.1,5.8,2.4l3.1,8.1c0.6,1.7,2.2,2.8,4,2.8l8,0
	c1.8,0,3.4-1.1,4-2.8l3.1-8.1c0.9-2.3,3.5-3.4,5.8-2.4l7.9,3.5c1.6,0.7,3.5,0.4,4.8-0.9l5.6-5.6c1.3-1.3,1.6-3.2,0.9-4.8l-3.5-7.9
	c-1-2.3,0.1-4.9,2.4-5.8l8.1-3.1c1.7-0.6,2.8-2.2,2.8-4l0-8C-274.2,1190-275.3,1188.4-276.9,1187.7z M-316,1215.7
	c-14.4,2.7-26.7-9.7-23.9-24c1.5-8,8-14.5,16-16c14.4-2.7,26.7,9.7,23.9,24C-301.5,1207.7-308,1214.2-316,1215.7z"/>
<g>
	<path fill="#676767" d="M471.5,343.3l-325.8-0.4c-9.6,0-17.4-7.8-17.3-17.4c0-9.6,7.8-17.4,17.4-17.3l325.8,0.4
		c9.6,0,17.4,7.8,17.3,17.4C488.9,335.5,481.1,343.3,471.5,343.3z"/>
	<path fill="#676767" d="M471.4,455.5l-325.8-0.4c-9.6,0-17.4-7.8-17.3-17.4c0-9.6,7.8-17.4,17.4-17.3l325.8,0.4
		c9.6,0,17.4,7.8,17.3,17.4C488.8,447.7,481,455.5,471.4,455.5z"/>
	<path fill="#676767" d="M471.3,567.6l-325.8-0.4c-9.6,0-17.4-7.8-17.3-17.4s7.8-17.4,17.4-17.3l325.8,0.4c9.6,0,17.4,7.8,17.3,17.4
		S480.8,567.6,471.3,567.6z"/>
</g>
</svg>
