<?xml version="1.0" encoding="utf-8"?>
<!-- Generator: Adobe Illustrator 22.0.0, SVG Export Plug-In . SVG Version: 6.00 Build 0)  -->
<svg version="1.2" baseProfile="tiny" id="Layer_1" xmlns="http://www.w3.org/2000/svg" xmlns:xlink="http://www.w3.org/1999/xlink"
	 x="0px" y="0px" viewBox="0 0 1024 768" xml:space="preserve">
<g>
	<g>
		<path fill="#F7B10D" d="M447.3,178.9c-9.3-27.5-17.7-55.3-24.8-83.5c26.4-29,128.5-25.2,157.9-0.4l-27.2,64.6
			c14.6-19.2,19.6-27.1,28.3-37.8c3.7,2.4,7.1,5.1,10.4,8.1c7.7,7,14.6,14.7,16,25.5c0.9,7-1.1,14.1-7.3,21.4l-62.3,72.6
			c-8-1.3-15.9-3.2-23.5-5.9c3.5-8.3,7.8-17.5,11.3-25.8L503.3,242c-23.6-5-42.7-2-60.4,7.4l-63.3-75.9c-3.7-4.5-5.5-9-5.5-13.6
			c0-18.3,27.4-34.2,41.8-40.2L447.3,178.9L447.3,178.9z"/>
		<path fill="#F7B10D" d="M528.4,316L516,259.6c52.9,9.8,137.6,117.4,165,166.3c14,25,26.2,52.5,36.3,83.2
			c19.9,74.4,0.7,144-79.9,160.2c-50.6,10.2-144.8,10.9-198,8.1c-57.1-2.9-145.6-2.8-168.7-61.6C233.3,521,301.7,408.2,364,339.1
			c8.2-9.1,16.7-17.5,25.5-25.4c22.7-19.9,47.1-43.6,76.3-53.5l-28.2,52.5l40.9-54.2H500L528.4,316L528.4,316z"/>
	</g>
	<path fill="#FFFFFF" d="M492.5,360.8v9.4c10,1.1,18.6,3.1,25.7,6.2c7.2,3.1,13.4,7.8,18.7,14c4.2,4.8,7.5,9.7,9.8,14.7
		c2.3,5.1,3.4,9.7,3.4,13.9c0,4.7-1.7,8.7-5.1,12.1c-3.4,3.4-7.6,5.1-12.4,5.1c-9.2,0-15.1-5-17.8-14.9
		c-3.1-11.7-10.5-19.5-22.3-23.3v58.3c11.6,3.2,20.9,6.1,27.7,8.7c6.9,2.6,13.1,6.4,18.4,11.3c5.8,5.1,10.3,11.3,13.4,18.4
		c3.1,7.2,4.7,15,4.7,23.5c0,10.6-2.5,20.6-7.5,29.9c-5,9.3-12.4,16.9-22.1,22.8c-9.8,5.9-21.3,9.4-34.6,10.5v9.5
		c0,5.5-0.6,9.5-1.6,12s-3.4,3.8-7.1,3.8c-3.3,0-5.7-1-7.1-3.1s-2-5.2-2-9.6v-12.4c-10.9-1.2-20.5-3.8-28.7-7.7
		c-8.2-3.9-15-8.8-20.5-14.6c-5.4-5.9-9.5-11.9-12.1-18.2c-2.6-6.3-3.9-12.5-3.9-18.6c0-4.5,1.7-8.5,5.2-12.1
		c3.5-3.6,7.8-5.4,13.1-5.4c4.2,0,7.8,1,10.7,2.9c2.9,2,4.9,4.7,6,8.3c2.5,7.7,4.7,13.5,6.5,17.6c1.9,4,4.7,7.8,8.5,11.1
		c3.8,3.3,8.8,5.9,15,7.7v-65.1c-12.5-3.5-22.9-7.3-31.4-11.6c-8.4-4.3-15.2-10.3-20.4-18.1c-5.2-7.8-7.8-17.9-7.8-30.2
		c0-16.1,5.1-29.3,15.3-39.5c10.2-10.3,25-16.3,44.3-17.9v-9.1c0-7.8,3-11.8,8.8-11.8C489.5,349.3,492.5,353.1,492.5,360.8
		L492.5,360.8z M474.7,451.1v-53.6c-7.8,2.3-14,5.4-18.3,9.2c-4.4,3.8-6.6,9.7-6.6,17.4c0,7.3,2,13,6.2,16.7
		C460,444.6,466.3,448.1,474.7,451.1L474.7,451.1z M492.5,492.7v61.4c9.4-1.9,16.7-5.6,21.8-11.3c5.1-5.8,7.7-12.4,7.7-19.9
		c0-8.1-2.5-14.4-7.5-18.9C509.5,499.5,502.2,495.8,492.5,492.7L492.5,492.7z"/>
</g>
<g>
	<g>
		<g>
			<path fill="#FFFFFF" d="M1388.2,847.4c-0.4-0.9-0.4-1.8,0-2.7l3.9-8c2.2-4.4,0.4-9.7-3.9-12l-7.8-4.1c-0.8-0.4-1.4-1.2-1.6-2.2
				l-1.5-8.7c-0.9-4.9-5.3-8.1-10.2-7.4l-8.8,1.2c-0.9,0.1-1.9-0.2-2.6-0.8l-6.4-6.2c-3.5-3.4-9.1-3.4-12.6,0l-6.4,6.2
				c-0.7,0.7-1.6,1-2.6,0.8l-8.8-1.2c-4.9-0.7-9.4,2.6-10.2,7.4l-1.5,8.7c-0.2,0.9-0.7,1.7-1.6,2.2l-7.8,4.1
				c-4.4,2.3-6.1,7.6-3.9,12l3.9,8c0.4,0.9,0.4,1.8,0,2.7l-3.9,8c-2.2,4.4-0.4,9.7,3.9,12l7.8,4.1c0.8,0.4,1.4,1.2,1.6,2.2l1.5,8.7
				c0.8,4.4,4.6,7.5,8.9,7.5c0.4,0,0.9,0,1.3-0.1l8.8-1.2c0.9-0.1,1.9,0.2,2.6,0.8l6.4,6.2c1.8,1.7,4,2.6,6.3,2.6
				c2.3,0,4.5-0.9,6.3-2.6l6.4-6.2c0.7-0.7,1.6-1,2.6-0.8l8.8,1.2c4.9,0.7,9.4-2.6,10.2-7.4l1.5-8.7c0.2-0.9,0.7-1.7,1.6-2.2
				l7.8-4.1c4.4-2.3,6.1-7.6,3.9-12L1388.2,847.4z M1385.3,862l-7.8,4.1c-2.5,1.3-4.2,3.7-4.7,6.5l-1.5,8.7
				c-0.3,1.6-1.8,2.7-3.5,2.5l-8.8-1.2c-2.8-0.4-5.6,0.5-7.6,2.5l-6.4,6.2c-1.2,1.2-3.1,1.2-4.3,0l-6.4-6.2c-1.7-1.7-4-2.6-6.3-2.6
				c-0.4,0-0.9,0-1.3,0.1l-8.8,1.2c-1.6,0.2-3.2-0.9-3.5-2.5l-1.5-8.7c-0.5-2.8-2.2-5.1-4.7-6.5l-7.8-4.1c-1.5-0.8-2.1-2.6-1.3-4.1
				l3.9-8c1.2-2.5,1.2-5.4,0-8l-3.9-8c-0.7-1.5-0.2-3.3,1.3-4.1l7.8-4.1c2.5-1.3,4.2-3.7,4.7-6.5l1.5-8.7c0.3-1.6,1.8-2.7,3.5-2.5
				l8.8,1.2c2.8,0.4,5.6-0.5,7.6-2.5l6.4-6.2c1.2-1.2,3.1-1.2,4.3,0l6.4,6.2c2,2,4.8,2.9,7.6,2.5l8.8-1.2c1.7-0.2,3.2,0.9,3.5,2.5
				l1.5,8.7c0.5,2.8,2.2,5.1,4.7,6.5l7.8,4.1c1.5,0.8,2.1,2.6,1.3,4.1l-3.9,8c-1.2,2.5-1.2,5.4,0,8l3.9,8
				C1387.4,859.4,1386.8,861.2,1385.3,862z"/>
		</g>
	</g>
	<g>
		<g>
			<path fill="#FFFFFF" d="M1365,824c-1.2-1.2-3.1-1.2-4.2,0l-39.7,39.7c-1.2,1.2-1.2,3.1,0,4.3c0.6,0.6,1.4,0.9,2.1,0.9
				c0.8,0,1.5-0.3,2.1-0.9l39.7-39.7C1366.1,827.1,1366.1,825.2,1365,824z"/>
		</g>
	</g>
	<g>
		<g>
			<path fill="#FFFFFF" d="M1331,819c-6.1,0-11,4.9-11,11s4.9,11,11,11s11-4.9,11-11S1337.1,819,1331,819z M1331,835
				c-2.8,0-5-2.2-5-5c0-2.8,2.2-5,5-5c2.8,0,5,2.2,5,5C1336,832.7,1333.7,835,1331,835z"/>
		</g>
	</g>
	<g>
		<g>
			<path fill="#FFFFFF" d="M1355,851c-6.1,0-11,4.9-11,11s4.9,11,11,11s11-4.9,11-11S1361.1,851,1355,851z M1355,867
				c-2.8,0-5-2.2-5-5s2.2-5,5-5c2.8,0,5,2.2,5,5S1357.8,867,1355,867z"/>
		</g>
	</g>
</g>
</svg>
