<?xml version="1.0" encoding="utf-8"?>
<!-- Generator: Adobe Illustrator 22.0.0, SVG Export Plug-In . SVG Version: 6.00 Build 0)  -->
<svg version="1.1" id="Layer_1" xmlns="http://www.w3.org/2000/svg" xmlns:xlink="http://www.w3.org/1999/xlink" x="0px" y="0px"
	 viewBox="0 0 512 512" style="enable-background:new 0 0 512 512;" xml:space="preserve">
<style type="text/css">
	.st0{fill:#FFFFFF;}
</style>
<title>Commercial delivery</title>
<polygon class="st0" points="203.7,241.2 377.3,141 295.6,93.8 122,194.1 "/>
<polygon class="st0" points="197,253.3 23,153.1 23,353.6 197,453.9 "/>
<rect x="351" y="356" class="st0" width="19" height="19"/>
<path class="st0" d="M211,253.3v200.5l95-54.9V254.2c-0.1-16.6,13.3-30.1,29.9-30.2h24.9c2.9-10.6,12.5-17.9,23.4-18H384v-52.9
	L211,253.3z"/>
<path class="st0" d="M384.2,220h40.7c5.6,0,10.2,4.5,10.2,10.2v0.7c0,5.6-4.5,10.2-10.2,10.2h-40.7c-5.6,0-10.2-4.5-10.2-10.2v-0.7
	C374,224.5,378.5,220,384.2,220z"/>
<polygon class="st0" points="281.6,85.7 203.7,40.7 30,141 108,186 "/>
<path class="st0" d="M472.9,238h-25.2c-3.1,10.2-12.5,17.1-23.1,17h-40.4c-10.6,0.1-20.1-6.8-23.1-17h-25.2
	c-8.8,0.1-16,7.3-15.9,16.2l0,0v202.1c-0.1,8.6,6.9,15.7,15.5,15.7c0.1,0,0.2,0,0.4,0h137c8.7,0.2,15.9-6.8,16.1-15.5
	c0-0.1,0-0.1,0-0.2V254.2C489,245.3,481.8,238.1,472.9,238z M337,285c0-3.9,3.1-7,6.9-7l0,0h33c3.9,0,7,3.1,7.1,7v4.7
	c0,3.9-3.2,7-7,7c-3,0.1-5.8-1.8-6.7-4.7H351v19h0.3c3.9,0,7,3.1,7,7s-3.1,7-7,7H344c-3.8,0-6.9-3.1-6.9-7l0,0v-33H337z M337,349
	c0-3.9,3.1-7,7-7h33c3.9,0,7,3.1,7,7v33c0,3.9-3.1,7-7,7h-33c-3.9,0-7-3.1-7-7V349z M351.3,453H344c-3.7,0.1-6.8-2.8-6.9-6.6
	c0-0.1,0-0.1,0-0.2v-33c0-3.9,3-7.1,6.9-7.3h33c3.9,0.1,7.1,3.3,7.1,7.3v6.7c-0.1,3.9-3.3,7-7.2,6.9c-3.8-0.1-6.8-3.1-6.9-6.9h-19
	v19h0.3c3.9,0,7,3.1,7,7S355.1,453,351.3,453L351.3,453z M402.9,425.7l-25.5,25.5c-2.7,2.7-7.2,2.7-9.9,0l0,0L356.4,440
	c-2.7-2.7-2.7-7.2,0-9.9s7.2-2.7,9.9,0l6.2,6.2l20.5-20.5c2.7-2.7,7.2-2.7,9.9,0S405.7,423,402.9,425.7L402.9,425.7z M402.9,296.5
	L377.4,322c-2.7,2.7-7.2,2.7-9.9,0l0,0l-11.2-11.2c-2.7-2.7-2.7-7.2,0-9.9s7.2-2.7,9.9,0l6.2,6.2l20.5-20.5c2.7-2.7,7.2-2.7,9.9,0
	S405.7,293.8,402.9,296.5L402.9,296.5z M464.9,437h-44c-3.9,0-7-3.1-7-7s3.1-7,7-7h44c3.9,0,7,3.1,7,7S468.7,437,464.9,437z
	 M464.9,373h-44c-3.9,0-7-3.1-7-7s3.1-7,7-7h44c3.9,0,7,3.1,7,7S468.7,373,464.9,373z M464.9,309h-44c-3.9,0-7-3.1-7-7s3.1-7,7-7h44
	c3.9,0,7,3.1,7,7S468.7,309,464.9,309z"/>
</svg>
