<?xml version="1.0" encoding="utf-8"?>
<!-- Generator: Adobe Illustrator 22.0.0, SVG Export Plug-In . SVG Version: 6.00 Build 0)  -->
<svg version="1.2" baseProfile="tiny" id="Layer_1" xmlns="http://www.w3.org/2000/svg" xmlns:xlink="http://www.w3.org/1999/xlink"
	 x="0px" y="0px" viewBox="0 0 1024 768" xml:space="preserve">
<g>
	<g>
		<g>
			<path fill="#FFFFFF" d="M751.1,373.8c-2.4-4.9-2.4-10.6,0-15.5l22.4-45.8c12.5-25.5,2.6-55.9-22.5-69.2l-45-23.9
				c-4.9-2.6-8.2-7.2-9.1-12.6l-8.8-50.2c-4.9-27.9-30.8-46.7-58.8-42.7l-50.5,7.1c-5.4,0.8-10.8-1-14.8-4.8l-36.6-35.4
				c-20.4-19.7-52.3-19.7-72.7,0L418,116.2c-4,3.8-9.3,5.6-14.8,4.8l-50.5-7.1c-28.1-4-53.9,14.8-58.8,42.7l-8.8,50.2
				c-1,5.4-4.3,10-9.1,12.6l-45,23.9c-25.1,13.3-34.9,43.7-22.5,69.2l22.4,45.8c2.4,4.9,2.4,10.6,0,15.5l-22.4,45.8
				c-12.5,25.5-2.6,55.9,22.5,69.2l45,23.9c4.9,2.6,8.2,7.2,9.1,12.6l8.8,50.2c4.5,25.4,26.3,43.3,51.3,43.3c2.5,0,5-0.2,7.5-0.5
				l50.5-7.1c5.4-0.8,10.8,1,14.8,4.8l36.6,35.4c10.2,9.9,23.3,14.8,36.4,14.8c13.1,0,26.2-4.9,36.4-14.8l36.6-35.4
				c4-3.8,9.3-5.6,14.8-4.8l50.5,7.1c28.1,4,53.9-14.8,58.8-42.7l8.8-50.2c1-5.4,4.3-10,9.1-12.6l45-23.9
				c25.1-13.3,34.9-43.7,22.5-69.2L751.1,373.8z M734.8,458.1l-45,23.9c-14.4,7.6-24.2,21.2-27,37.2l-8.8,50.2
				c-1.7,9.5-10.4,15.8-19.9,14.5l-50.5-7.1c-16.1-2.3-32,2.9-43.7,14.2l-36.6,35.4c-6.9,6.7-17.7,6.7-24.6,0l-36.6-35.4
				c-9.9-9.5-22.8-14.7-36.2-14.7c-2.5,0-5,0.2-7.4,0.5l-50.5,7.1c-9.5,1.3-18.2-5-19.9-14.5l-8.8-50.2c-2.8-16-12.6-29.5-27-37.2
				l-45-23.9c-8.5-4.5-11.8-14.8-7.6-23.4L262,389c7.1-14.6,7.1-31.3,0-45.9l-22.4-45.8c-4.2-8.6-0.9-18.9,7.6-23.4l45-23.9
				c14.4-7.6,24.2-21.2,27-37.2l8.8-50.2c1.7-9.5,10.4-15.8,19.9-14.5l50.5,7.1c16.1,2.3,32-2.9,43.7-14.2l36.6-35.4
				c6.9-6.7,17.7-6.7,24.6,0l36.6,35.4c11.7,11.3,27.6,16.5,43.7,14.2l50.5-7.1c9.5-1.3,18.2,5,19.9,14.5l8.8,50.2
				c2.8,16,12.6,29.5,27,37.2l45,23.9c8.5,4.5,11.8,14.8,7.6,23.4L720,343c-7.1,14.6-7.1,31.3,0,45.9l22.4,45.8
				C746.6,443.4,743.3,453.7,734.8,458.1z"/>
		</g>
	</g>
	<g>
		<g>
			<path fill="#FFFFFF" d="M617.4,239.6c-6.8-6.8-17.7-6.8-24.5,0L364.6,468c-6.8,6.8-6.8,17.7,0,24.5c3.4,3.4,7.8,5.1,12.2,5.1
				s8.9-1.7,12.2-5.1L617.4,264C624.2,257.3,624.2,246.3,617.4,239.6z"/>
		</g>
	</g>
	<g>
		<g>
			<path fill="#FFFFFF" d="M421.8,210.3c-35,0-63.4,28.5-63.4,63.4s28.5,63.4,63.4,63.4s63.4-28.5,63.4-63.4
				S456.8,210.3,421.8,210.3z M421.8,302.6c-15.9,0-28.8-12.9-28.8-28.8c0-15.9,12.9-28.8,28.8-28.8c15.9,0,28.8,12.9,28.8,28.8
				C450.6,289.6,437.7,302.6,421.8,302.6z"/>
		</g>
	</g>
	<g>
		<g>
			<path fill="#FFFFFF" d="M560.2,394.8c-35,0-63.4,28.5-63.4,63.4s28.5,63.4,63.4,63.4c35,0,63.4-28.5,63.4-63.4
				S595.2,394.8,560.2,394.8z M560.2,487.1c-15.9,0-28.8-12.9-28.8-28.8c0-15.9,12.9-28.8,28.8-28.8c15.9,0,28.8,12.9,28.8,28.8
				C589,474.2,576.1,487.1,560.2,487.1z"/>
		</g>
	</g>
</g>
</svg>
