<?xml version="1.0" encoding="utf-8"?>
<!-- Generator: Adobe Illustrator 22.0.0, SVG Export Plug-In . SVG Version: 6.00 Build 0)  -->
<svg version="1.1" id="Layer_5" xmlns="http://www.w3.org/2000/svg" xmlns:xlink="http://www.w3.org/1999/xlink" x="0px" y="0px"
	 viewBox="0 0 512 512" style="enable-background:new 0 0 512 512;" xml:space="preserve">
<style type="text/css">
	.st0{fill:#FFFFFF;}
</style>
<g>
	<path class="st0" d="M152,304v88h16v-88c0-13.2-10.8-24-24-24H72c-4.4,0-8-3.6-8-8s3.6-8,8-8h56c13.2,0,24-10.8,24-24v-24h-16v24
		c0,4.4-3.6,8-8,8H72c-13.2,0-24,10.8-24,24s10.8,24,24,24h72C148.4,296,152,299.6,152,304z"/>
	<path class="st0" d="M24,432c0,13.2,10.8,24,24,24h24v-48H48C34.8,408,24,418.8,24,432z"/>
	<path class="st0" d="M120,408h96v16h-96V408z"/>
	<path class="st0" d="M64,200h222.3l-8.5-8.5l11.8-19.9c-1.2-2.5-2.2-5.1-3.2-7.6l-22.4-5.7V97.8l22.4-5.7c1-2.6,2-5.1,3.2-7.7
		L280,68.3c-8.8-7.9-20-12.3-32-12.3c-26.5,0-48,21.5-48,48h-16c0-18.5,7.9-35.1,20.5-46.8C191.3,36.6,168.7,24,144,24
		c-39.7,0-72,32.3-72,72c0,2.9,0.2,5.8,0.6,8.7c9.7,1.5,19,5.5,26.7,11.8C112.5,127.2,120,143,120,160h-16
		c0-12.1-5.4-23.4-14.8-31.1c-9.4-7.6-21.7-10.6-33.9-8c-15,3.1-27.3,15.4-30.4,30.4c-2.5,12.2,0.4,24.5,8,33.9S51.9,200,64,200
		L64,200z"/>
	<path class="st0" d="M88,408h16v48H88V408z"/>
	<path class="st0" d="M467.8,154.8l1.3-4.2l18.8-4.8v-35.6l-18.8-4.8l-1.3-4.2c-1.4-4.5-3.3-9-5.6-13.5l-2-3.9l10-16.8L445,41.9
		l-16.8,10l-3.9-2c-4.5-2.3-9-4.2-13.5-5.6l-4.2-1.4L401.8,24h-35.6l-4.8,18.8l-4.2,1.4c-4.5,1.4-9,3.3-13.5,5.6l-3.9,2l-16.8-10
		L297.9,67l10,16.8l-2,3.9c-2.3,4.5-4.2,9-5.6,13.5l-1.3,4.2l-18.8,4.8v35.6l18.8,4.8l1.3,4.2c1.4,4.5,3.3,9,5.6,13.5l2,3.9
		l-10,16.8l25.1,25.1l16.8-10l3.9,2c4.5,2.3,9,4.2,13.5,5.6l4.2,1.4l4.8,18.8h35.6l4.8-18.8l4.2-1.4c4.5-1.4,9-3.3,13.5-5.6l3.9-2
		l16.8,10l25.1-25.1l-10-16.8l2-3.9C464.5,163.8,466.4,159.3,467.8,154.8L467.8,154.8z M384,192c-35.3,0-64-28.7-64-64
		s28.7-64,64-64s64,28.7,64,64S419.3,192,384,192z"/>
	<path class="st0" d="M120,440h96v16h-96V440z"/>
	<path class="st0" d="M280,432c0-1.5-0.9-2.8-2.3-3.3L232,411.5v40.9l45.7-17.1C279.1,434.8,280,433.5,280,432z"/>
	<path class="st0" d="M427.6,222.4c-2.5,1.2-5.1,2.2-7.6,3.2l-5.7,22.4h-60.4l-5.7-22.4c-2.5-1-5.1-2-7.6-3.2l-19.9,11.8L302.3,216
		H200v176h25.5l57.9,21.7c7.6,2.8,12.7,10.2,12.7,18.3s-5.1,15.5-12.7,18.3L225.5,472H200v16h256V225.7l-8.5,8.5L427.6,222.4z
		 M232,379.3l-21.7-21.7l11.3-11.3l10.3,10.3l34.3-34.3l11.3,11.3L232,379.3z M232,315.3l-21.7-21.7l11.3-11.3l10.3,10.3l34.3-34.3
		l11.3,11.3L232,315.3z M296,296h16v16h-16V296z M296,360h112v16H296V360z M336,448c-8.8,0-16-7.2-16-16s7.2-16,16-16s16,7.2,16,16
		S344.8,448,336,448z M400,448c-8.8,0-16-7.2-16-16s7.2-16,16-16s16,7.2,16,16S408.8,448,400,448z M440,376h-16v-16h16V376z
		 M440,344H296v-16h144V344z M440,312H328v-16h112V312z M440,280H296v-16h144V280z"/>
	<circle class="st0" cx="384" cy="128" r="32"/>
</g>
</svg>
