<?xml version="1.0" encoding="utf-8"?>
<!-- Generator: Adobe Illustrator 22.0.0, SVG Export Plug-In . SVG Version: 6.00 Build 0)  -->
<svg version="1.2" baseProfile="tiny" id="Layer_1" xmlns="http://www.w3.org/2000/svg" xmlns:xlink="http://www.w3.org/1999/xlink"
	 x="0px" y="0px" viewBox="0 0 595.3 841.9" xml:space="preserve">
<path fill-rule="evenodd" fill="#676767" d="M474.7,388.9l-27.1-10.4c-7.7-3-11.4-11.8-8-19.4l11.9-26.5c2.5-5.5,1.3-11.9-3-16.1
	l-18.9-19c-4.2-4.2-10.6-5.4-16.1-3l-26.5,11.8c-7.6,3.4-16.4-0.3-19.4-8.1l-10.3-27.1c-2.1-5.6-7.5-9.3-13.5-9.3l-26.8,0
	c-6,0-11.4,3.7-13.5,9.3l-10.4,27.1c-3,7.7-11.8,11.4-19.4,8L247,294.3c-5.5-2.4-11.9-1.3-16.1,3l-19,18.9c-4.2,4.2-5.4,10.6-3,16.1
	l11.8,26.5c3.4,7.6-0.3,16.4-8.1,19.4l-27.1,10.4c-5.6,2.1-9.3,7.5-9.3,13.5l0,26.8c0,6,3.7,11.4,9.3,13.5l27.1,10.4
	c7.7,3,11.4,11.8,8,19.4l-11.9,26.5c-2.5,5.5-1.3,11.9,3,16.1l18.9,19c4.2,4.2,10.6,5.4,16.1,3l26.5-11.8c7.6-3.4,16.4,0.3,19.4,8.1
	l10.3,27.1c2.1,5.6,7.5,9.3,13.5,9.3l26.8,0c6,0,11.4-3.7,13.5-9.3l10.4-27.1c3-7.7,11.8-11.4,19.4-8l26.5,11.9
	c5.5,2.5,11.9,1.3,16.1-3l19-19c4.2-4.2,5.4-10.6,3-16.1l-11.8-26.5c-3.4-7.6,0.3-16.4,8.1-19.4l27.1-10.3c5.6-2.1,9.3-7.5,9.3-13.5
	l0-26.8C484,396.4,480.3,391.1,474.7,388.9z M343.4,482.9c-48.3,9.1-89.7-32.5-80.5-80.7c5.1-26.8,27.1-48.7,53.9-53.8
	c48.3-9.1,89.8,32.5,80.5,80.8C392.2,456,370.2,477.9,343.4,482.9z"/>
</svg>
